<svg width="10" height="10" viewBox="0 0 10 10" fill="none" xmlns="http://www.w3.org/2000/svg">
<path d="M8.4375 4.68752H2.20328L4.59047 2.41377C4.71547 2.2947 4.72031 2.09689 4.60125 1.97189C4.48234 1.84705 4.28453 1.84205 4.15938 1.96111L1.43312 4.55798C1.31516 4.67611 1.25 4.83298 1.25 5.00002C1.25 5.16689 1.31516 5.32392 1.43859 5.4472L4.15953 8.03877C4.22 8.09642 4.2975 8.12502 4.375 8.12502C4.4575 8.12502 4.54 8.09252 4.60141 8.02798C4.72047 7.90298 4.71562 7.70533 4.59062 7.58627L2.19344 5.31252H8.4375C8.61 5.31252 8.75 5.17252 8.75 5.00002C8.75 4.82752 8.61 4.68752 8.4375 4.68752Z" fill="#100E34"/>
</svg>
