<svg width="24" height="24" viewBox="0 0 24 24" fill="none" xmlns="http://www.w3.org/2000/svg">
<g clip-path="url(#clip0)">
<path d="M23.3524 10.4388C23.3518 10.4383 23.3513 10.4377 23.3507 10.4372L13.5606 0.647461C13.1433 0.22998 12.5885 0 11.9984 0C11.4082 0 10.8534 0.229797 10.4359 0.647278L0.650965 10.4321C0.647669 10.4354 0.644373 10.4388 0.641077 10.4421C-0.215857 11.304 -0.214392 12.7024 0.645288 13.5621C1.03805 13.955 1.55679 14.1826 2.11141 14.2064C2.13394 14.2086 2.15664 14.2097 2.17953 14.2097H2.56973V21.4144C2.56973 22.84 3.7297 24 5.15573 24H8.98592C9.37411 24 9.68905 23.6852 9.68905 23.2969V17.6484C9.68905 16.9979 10.2182 16.4687 10.8688 16.4687H13.128C13.7785 16.4687 14.3077 16.9979 14.3077 17.6484V23.2969C14.3077 23.6852 14.6225 24 15.0108 24H18.841C20.2671 24 21.427 22.84 21.427 21.4144V14.2097H21.7888C22.3788 14.2097 22.9336 13.9799 23.3513 13.5624C24.2119 12.7013 24.2122 11.3005 23.3524 10.4388Z" fill="#071329"/>
</g>
<defs>
<clipPath id="clip0">
<rect width="24" height="24" fill="white"/>
</clipPath>
</defs>
</svg>
