<svg width="24" height="24" viewBox="0 0 24 24" fill="none" xmlns="http://www.w3.org/2000/svg">
<g clip-path="url(#clip0)">
<path d="M23.7068 22.2929L16.8818 15.468C18.2038 13.835 18.9998 11.76 18.9998 9.50005C18.9998 4.2621 14.7378 0.00012207 9.49988 0.00012207C4.26193 0.00012207 0 4.26205 0 9.5C0 14.738 4.26197 18.9999 9.49992 18.9999C11.7599 18.9999 13.8349 18.204 15.4678 16.882L22.2928 23.7069C22.4878 23.9019 22.7438 23.9999 22.9998 23.9999C23.2558 23.9999 23.5118 23.9019 23.7068 23.7069C24.0978 23.3159 24.0978 22.6839 23.7068 22.2929ZM9.49992 16.9999C5.36395 16.9999 2 13.636 2 9.5C2 5.36403 5.36395 2.00007 9.49992 2.00007C13.6359 2.00007 16.9998 5.36403 16.9998 9.5C16.9998 13.636 13.6359 16.9999 9.49992 16.9999Z" fill="#100E34" fill-opacity="0.5"/>
</g>
<defs>
<clipPath id="clip0">
<rect width="24" height="24" fill="white"/>
</clipPath>
</defs>
</svg>
